<?xml version="1.0" standalone="no"?>
<!DOCTYPE svg PUBLIC "-//W3C//DTD SVG 1.1//EN" "http://www.w3.org/Graphics/SVG/1.1/DTD/svg11.dtd" >
<svg xmlns="http://www.w3.org/2000/svg">
<metadata>
Created by FontForge 20120731 at Sun Jul 31 11:41:10 2016
 By admin
</metadata>
<defs>
<font id="iconfont" horiz-adv-x="1024" >
  <font-face 
    font-family="iconfont"
    font-weight="500"
    font-stretch="normal"
    units-per-em="1024"
    panose-1="2 0 6 3 0 0 0 0 0 0"
    ascent="896"
    descent="-128"
    x-height="792"
    bbox="-0.820176 -212 1114 896.713"
    underline-thickness="50"
    underline-position="-100"
    unicode-range="U+0078-E729"
  />
<missing-glyph horiz-adv-x="374" 
d="M34 0v682h272v-682h-272zM68 34h204v614h-204v-614z" />
    <glyph glyph-name=".notdef" horiz-adv-x="374" 
d="M34 0v682h272v-682h-272zM68 34h204v614h-204v-614z" />
    <glyph glyph-name=".null" horiz-adv-x="0" 
 />
    <glyph glyph-name="nonmarkingreturn" horiz-adv-x="341" 
 />
    <glyph glyph-name="x" unicode="x" horiz-adv-x="1001" 
d="M281 543q-27 -1 -53 -1h-83q-18 0 -36.5 -6t-32.5 -18.5t-23 -32t-9 -45.5v-76h912v41q0 16 -0.5 30t-0.5 18q0 13 -5 29t-17 29.5t-31.5 22.5t-49.5 9h-133v-97h-438v97zM955 310v-52q0 -23 0.5 -52t0.5 -58t-10.5 -47.5t-26 -30t-33 -16t-31.5 -4.5q-14 -1 -29.5 -0.5
t-29.5 0.5h-32l-45 128h-439l-44 -128h-29h-34q-20 0 -45 1q-25 0 -41 9.5t-25.5 23t-13.5 29.5t-4 30v167h911zM163 247q-12 0 -21 -8.5t-9 -21.5t9 -21.5t21 -8.5q13 0 22 8.5t9 21.5t-9 21.5t-22 8.5zM316 123q-8 -26 -14 -48q-5 -19 -10.5 -37t-7.5 -25t-3 -15t1 -14.5
t9.5 -10.5t21.5 -4h37h67h81h80h64h36q23 0 34 12t2 38q-5 13 -9.5 30.5t-9.5 34.5q-5 19 -11 39h-368zM336 498v228q0 11 2.5 23t10 21.5t20.5 15.5t34 6h188q31 0 51.5 -14.5t20.5 -52.5v-227h-327z" />
    <glyph glyph-name="uni3433" unicode="&#x3433;" horiz-adv-x="1000" 
d="M851 612l-50 50q-29 29 -69.5 29t-68.5 -29l-37 -36l189 -189l36 36q29 29 29 69.5t-29 69.5zM325 136v51l-69 68l-5 -5q-23 -23 -28 -56l-14 -49l-10 -6l-35 -165l187 32l9 18l60 19l1 4q11 6 19 15l5 5l-69 69h-51zM284 283l41 -41h32v-73h74v-33l41 -42l322 321
l-189 189z" />
    <glyph glyph-name="uni343C" unicode="&#x343c;" horiz-adv-x="1000" 
d="M897 400l-71 16q-7 24 -20 50l38 63q12 19 13 39t-13 39l-39 38q-15 15 -39 15q-22 0 -40 -12l-62 -40q-25 13 -50 21l-16 72q-3 21 -19.5 37.5t-37.5 16.5h-55q-21 0 -35.5 -16.5t-19.5 -38.5l-17 -70q-28 -9 -54 -22l-63 40q-18 12 -40 12q-24 0 -39 -15l-39 -38
q-14 -19 -13 -39t13 -39l40 -66q-12 -25 -19 -47l-70 -16q-21 -4 -37.5 -20t-16.5 -38v-54q0 -21 16 -35.5t38 -19.5l71 -18q7 -21 18 -43l-40 -67q-12 -19 -13 -39t13 -38l39 -39q15 -15 39 -15q22 0 40 12l64 41q26 -14 53 -23l18 -70q5 -22 19 -38.5t35 -16.5h55
q22 0 38 17t20 38l16 71q25 8 49 21l62 -40q18 -12 40 -12q24 0 39 15l39 39q14 18 13 38t-13 39l-38 63q11 24 19 47l71 18q22 5 38.5 19.5t16.5 35.5v54q0 22 -16.5 38t-37.5 20zM907 288q0 -2 -2.5 -4t-7.5 -4.5t-11 -4.5l-71 -17l-24 -6l-7 -23q-7 -21 -17 -41l-11 -21
l12 -21l39 -64q3 -5 4.5 -10.5t1.5 -8.5v-5l-39 -38q-2 -2 -8 -2q-9 0 -15 4l-1 1h-1l-61 40l-22 13l-22 -11q-21 -11 -43 -18l-24 -8l-5 -25l-16 -71v-1q-1 -7 -6 -13t-9 -6h-55q-1 0 -3 2.5t-4.5 8t-4.5 11.5l-17 70l-6 24l-24 7q-23 7 -46 19l-23 12l-21 -13l-63 -41h-1
l-1 -1q-7 -4 -15 -4q-6 0 -8 2l-39 38v5q0 3 1.5 8.5t5.5 10.5l40 67l12 21l-10 21q-10 19 -16 38l-8 23l-23 6l-72 18q-6 1 -11 3.5t-7.5 4.5t-2.5 4v54q0 4 6 9t13 6h1l71 16l24 5l8 24q6 19 17 41l10 22l-12 20l-41 67q-3 6 -4.5 11.5t-1.5 8.5v4l39 38q2 2 8 2
q9 0 15 -4l1 -1h1l63 -40l21 -14l23 12q23 12 46 19l23 8l6 23l18 71q1 6 3.5 11t5 7.5t3.5 2.5h55q3 0 8 -6t6 -12v-1l1 -1l15 -71l6 -24l24 -8q21 -7 43 -18l22 -12l22 14l61 39h1l1 1q6 4 15 4q6 0 8 -2l39 -38v-4q0 -3 -2 -9t-5 -11l-38 -63l-12 -21l11 -22
q11 -22 18 -43l7 -25l25 -5l70 -16h1h1q6 -1 12 -6t6 -9v-54zM513.5 493q-72.5 0 -124 -51.5t-51.5 -124t51.5 -124t124 -51.5t124 51.5t51.5 124t-51.5 124t-124 51.5zM514 185q-55 0 -93.5 38.5t-38.5 93t38.5 93.5t93.5 39t93.5 -39t38.5 -93.5t-38.5 -93t-93.5 -38.5z
" />
    <glyph glyph-name="uni3455" unicode="&#x3455;" horiz-adv-x="1000" 
d="M514 185q51 37 86 91.5t35 114.5q0 101 -61.5 173t-148 72t-147.5 -72t-61 -173q0 -60 35 -114.5t85 -91.5q-47 -12 -90.5 -34t-83 -55.5t-63 -82t-23.5 -105.5q0 -12 8 -20t19.5 -8t19.5 8t8 20q0 44 20.5 83.5t52.5 66.5t72 46.5t78 29t70.5 9.5t71 -9.5t78 -29
t71.5 -46.5t52.5 -66.5t20.5 -83.5q0 -12 8 -20t19.5 -8t20 8t8.5 20q0 57 -23.5 105.5t-63 82t-83 55.5t-91.5 34zM426 202q-12 0 -37 15.5t-51 39.5t-46 61t-20 73q0 78 45 133.5t108.5 55.5t108.5 -55.5t45 -133.5q0 -36 -19.5 -73t-46 -61t-51 -39.5t-36.5 -15.5z
M780 328q32 27 53 64t21 76q0 74 -44.5 126t-108.5 52q-52 0 -94 -38q22 -16 39 -36q25 21 55 21q41 0 70.5 -37t29.5 -88q0 -42 -34.5 -79t-60.5 -45q-7 -29 -22 -58q10 1 17 1q28 0 61 -10t64 -28.5t52 -50t21 -68.5q0 -11 7.5 -18.5t19 -7.5t19 7.5t7.5 18.5
q0 72 -50 123.5t-122 74.5z" />
    <glyph glyph-name="uni3484" unicode="&#x3484;" horiz-adv-x="1000" 
d="M315.5 516q-16.5 0 -28 -12t-11.5 -28.5t11.5 -28t28 -11.5t28 11.5t11.5 28t-11.5 28.5t-28 12zM315.5 198q-16.5 0 -28 -11.5t-11.5 -28t11.5 -28.5t28 -12t28 12t11.5 28.5t-11.5 28t-28 11.5zM315.5 357q-16.5 0 -28 -12t-11.5 -28t11.5 -28t28 -12t28 12t11.5 28
t-11.5 28t-28 12zM713 198h-239q-16 0 -27.5 -11.5t-11.5 -28t11.5 -28.5t27.5 -12h239q16 0 27.5 12t11.5 28.5t-11.5 28t-27.5 11.5zM713 516h-239q-16 0 -27.5 -12t-11.5 -28.5t11.5 -28t27.5 -11.5h239q16 0 27.5 11.5t11.5 28t-11.5 28.5t-27.5 12zM832 754h-636
q-33 0 -56 -23.5t-23 -56.5v-714q0 -33 23 -56.5t56 -23.5h636q33 0 56 23.5t23 56.5v714q0 33 -23 56.5t-56 23.5zM832 -1q0 -16 -12 -27.5t-28 -11.5h-556q-16 0 -28 11.5t-12 27.5v636q0 16 12 27.5t28 11.5h556q16 0 28 -11.5t12 -27.5v-636zM713 357h-239
q-16 0 -27.5 -12t-11.5 -28t11.5 -28t27.5 -12h239q16 0 27.5 12t11.5 28t-11.5 28t-27.5 12z" />
    <glyph glyph-name="uniE601" unicode="&#xe601;" 
d="M808 439h-198l67 433l-461 -567h230l-66 -433z" />
    <glyph glyph-name="uniE603" unicode="&#xe603;" 
d="M672 -88q-61 0 -104.5 6t-61.5 12t-47 20q-67 31 -154 43v-25h-137q-37 0 -61 35q-20 31 -20 74v336q0 42 20 73q24 36 61 36h137v-19q143 49 242 124q57 44 85 88q27 44 21 84q-4 23 13 42q14 17 34 17q25 0 51.5 -13.5t42.5 -42.5q27 -47 13 -120q-14 -69 -64 -160h125
q41 0 62 -33q16 -26 16 -64q0 -60 -31 -97q1 -1 1 -2q11 -20 11 -51q0 -45 -20 -87q-13 -26 -31 -40v-12q0 -41 -20 -84q-20 -40 -49 -52q-8 -39 -44 -63q-38 -25 -91 -25zM309 42q45 -5 80.5 -14t51 -15.5t39.5 -17.5q26 -12 42 -17.5t55 -10.5t95 -5q35 0 61 15t26 44v25
h25q8 0 18 14q14 19 21 49q6 26 3 35q3 -8 14 -8v50q10 0 22 25q15 31 15 64q0 18 -4 26q-2 3 -5 3v50q7 0 16 17q12 24 12 54q0 24 -8 37q-7 10 -20 10h-212l23 38q35 59 55 107t24 79.5t2 50t-9 30.5q-16 29 -48 31v-2q17 -109 -126 -218q-112 -86 -272 -137zM168 472
q-12 0 -21.5 -17.5t-9.5 -41.5v-336q0 -24 9.5 -41.5t21.5 -17.5h87v454h-87z" />
    <glyph glyph-name="uniE605" unicode="&#xe605;" horiz-adv-x="1115" 
d="M669 -118q-87 0 -163.5 7t-126.5 17.5t-86.5 23t-52.5 23t-16 18.5q0 126 64.5 234t171.5 166q5 3 8 5q102 -72 204 -72t203 71q9 -4 22 -12q99 -61 158 -166.5t59 -225.5q0 -8 -16 -18.5t-52 -23t-86 -23t-126.5 -17.5t-164.5 -7zM172 -128zM676 896q-118 0 -201.5 -84
t-83.5 -202.5t83.5 -202t201.5 -83.5t202 83.5t84 202t-84 202.5t-202 84zM487 523q-6 -7 -15.5 -7t-16 6.5t-6.5 16t7 16.5q6 6 15.5 6t15.5 -6q7 -7 7 -16t-7 -16zM663 801q-74 0 -125.5 -52t-51.5 -125q0 -9 -6.5 -15.5t-15.5 -6.5t-15.5 6.5t-6.5 15.5q0 92 64.5 157
t156.5 65q9 0 15.5 -6.5t6.5 -16t-6.5 -16t-15.5 -6.5z" />
    <glyph glyph-name="uniE606" unicode="&#xe606;" 
d="M511.5 -148q-91.5 0 -174 35.5t-142.5 95.5t-95.5 143t-35.5 174t35.5 174t95.5 143t142.5 95.5t174 35.5t174 -35.5t142.5 -95.5t95.5 -143t35.5 -174t-35.5 -174t-95.5 -143t-142.5 -95.5t-174 -35.5zM511.5 -86q105.5 0 194.5 51.5t140.5 140.5t51.5 194t-51.5 194
t-140.5 141t-194.5 52t-194.5 -52t-140.5 -141t-51.5 -194t51.5 -194t140.5 -140.5t194.5 -51.5zM373 391q2 40 10.5 62.5t29.5 41t47 27.5t53 9q58 0 94.5 -33t36.5 -89q0 -28 -11 -48t-48 -54q-40 -39 -49 -57t-9 -61h-45q1 39 12 65t48.5 64.5t47 54.5t9.5 40
q0 37 -24 59t-64 22q-87 0 -95 -103h-43zM531 75h-50v53h50v-53z" />
    <glyph glyph-name="uniE608" unicode="&#xe608;" 
d="M512.5 622q-87.5 0 -162 -37.5t-117.5 -102.5t-43 -142q0 -65 32.5 -122.5t88.5 -97.5v-142l141 85q31 -5 60 -5q88 0 162 38t117.5 103t43.5 141.5t-43.5 141.5t-117.5 102.5t-161.5 37.5zM613 240h-201q-9 0 -14.5 5.5t-5.5 14t5.5 14.5t14.5 6h201q9 0 14.5 -6
t5.5 -14.5t-5.5 -14t-14.5 -5.5zM653 360h-282q-8 0 -14 6t-6 14.5t6 14.5t14 6h282q9 0 15 -6t6 -14.5t-6 -14.5t-15 -6z" />
    <glyph glyph-name="uniE609" unicode="&#xe609;" 
d="M952 529l-428 300q-12 8 -24 0l-428 -300q-7 -5 -8.5 -13.5t3.5 -16t13.5 -9t16.5 3.5l52 37v-490q0 -44 28.5 -75t68.5 -31h532q40 0 68.5 31t28.5 75v490l52 -37q17 -11 30 6q5 7 3.5 15.5t-8.5 13.5zM619 -23h-214v268q0 44 31.5 75t75.5 31t75.5 -31t31.5 -75v-268z
M833 41q0 -26 -16 -45t-39 -19h-116v268q0 61 -44 105t-106 44t-106 -44t-44 -105v-268h-116q-23 0 -39 19t-16 45v520l321 224l321 -224v-520z" />
    <glyph glyph-name="uniE60B" unicode="&#xe60b;" 
d="M802 302q-27 60 -40.5 112t-14.5 81t4.5 53t9.5 29.5t7 9.5q2 1 0.5 3.5t-4.5 1.5q-5 -2 -15.5 -7t-33 -22t-39.5 -36.5t-28 -52t-6 -68.5q-18 16 -37 36.5t-47.5 64.5t-43.5 89t-12 106t33 119q1 2 -0.5 3.5t-3.5 0.5q-7 -2 -18.5 -8.5t-37.5 -27.5t-46 -48
q-89 -120 -27 -302q20 -80 -36 -153q11 39 10 78q-3 105 -92 156q-2 2 -4 0.5t-1 -3.5q23 -132 -21 -185q-36 -44 -56 -103.5t-4 -115.5q27 -102 172 -153q35 -11 74 -18q3 -1 3.5 2t-1.5 4q-108 47 -62 156q41 89 22 135q56 -32 46 -85q0 -3 2 -4t3.5 0.5t6.5 5.5t15 15.5
t19 24.5t18 31.5t13 37.5t2 42.5t-12 46.5q10 -6 19 -13t21 -23t18 -34.5t5.5 -47.5t-11.5 -61q-6 -22 0.5 -44.5t12.5 -29.5t11 -13q2 -1 4 0t1 4q-1 4 -3 9.5t-3.5 20t0.5 28t11 29t25 26.5q-10 -60 12 -88q38 -45 31 -93q-6 -37 -44 -62q-2 -2 -1 -4.5t4 -1.5
q137 45 180 140q40 87 -10 206v0zM802 302z" />
    <glyph glyph-name="uniE610" unicode="&#xe610;" 
d="M950 530l-426 298q-12 9 -24 0l-427 -298q-7 -5 -8.5 -14t3.5 -16t13.5 -8.5t16.5 3.5l51 36v-488q0 -44 28.5 -75t69.5 -31h530q40 0 68.5 31t28.5 75v488l52 -36q5 -4 12 -4q11 0 18 9q5 7 3.5 16t-9.5 14zM640 -21h-256v267q0 52 37.5 90t90.5 38t90.5 -38t37.5 -90
v-267z" />
    <glyph glyph-name="uniE611" unicode="&#xe611;" 
d="M703 -63q-14 0 -23 10l-415 414q-9 10 -9 23.5t9 23.5l415 414q9 10 23 10t23.5 -9.5t9.5 -23t-10 -23.5l-391 -392l391 -391q10 -10 10 -23.5t-9.5 -23t-23.5 -9.5z" />
    <glyph glyph-name="uniE612" unicode="&#xe612;" 
d="M737 -45q-20 0 -38 9l-180 94q-8 4 -16 0l-179 -94q-45 -24 -87 6q-19 14 -27.5 36t-4.5 45l34 200q1 8 -5 15l-145 141q-17 17 -22.5 39.5t1.5 45t25 37.5t42 19l200 29q9 1 13 9l89 182q11 21 31 33t43 12q24 0 44 -12t30 -33l90 -182q4 -8 13 -9l200 -29
q24 -4 41.5 -19t25 -37.5t2 -45t-22.5 -39.5l-145 -141q-7 -7 -5 -15l34 -200q4 -23 -5 -45t-28 -36q-21 -15 -48 -15zM511.5 126q20.5 0 38.5 -10l179 -94q9 -5 17.5 1.5t7.5 16.5l-35 200q-7 42 24 72l145 142q8 7 4.5 17t-13.5 12l-201 29q-43 6 -62 45l-89 182
q-5 9 -16 9q-10 0 -15 -9l-89 -182q-20 -39 -63 -45l-200 -29q-10 -2 -13.5 -12t4.5 -17l145 -142q31 -30 23 -72l-34 -200q-2 -11 6.5 -17t18.5 -1l179 94q18 10 38.5 10z" />
    <glyph glyph-name="uniE613" unicode="&#xe613;" horiz-adv-x="1026" 
d="M513 739q89 0 170 -35t140 -93.5t94 -140t35 -170t-35 -169.5t-94 -140t-140 -94t-170 -35t-170.5 35t-140.5 94t-94 140t-35 169.5t35 170t94 140t140.5 93.5t170.5 35zM513 812q-105 0 -200.5 -41t-163.5 -110t-108.5 -163.5t-40.5 -197t40.5 -196.5t108.5 -163
t163.5 -110.5t200.5 -41.5t200 40.5t163.5 108.5t108.5 163t40 200t-40 199.5t-108.5 163t-163.5 108.5t-200 40zM564 9v394l176 -175l66 73l-293 292l-293 -292l66 -73l175 175v-394h103z" />
    <glyph glyph-name="uniE615" unicode="&#xe615;" 
d="M920 488h-260q20 76 27 138.5t3 102t-16 69.5t-24.5 45t-28 24t-21.5 11l-10 2q-25 0 -39 -9.5t-17 -20.5t-4 -23t-3 -14q0 -51 -19.5 -103.5t-48 -90.5t-57 -69t-48.5 -46l-20 -16v-517q0 -23 19 -40t40 -23t38 -6h391q10 0 21 10t18.5 24t14 28t9.5 24l4 10
q43 147 67 256t27 134.5t3 36.5q0 19 -7 32.5t-16.5 19t-19 8.5t-16.5 3h-7v0zM920 488zM227 488h-156q-14 0 -22.5 -8t-9.5 -16l-1 -8l33 -521q0 -15 8 -23t17 -9l8 -1h135q12 0 19 5.5t8 10.5l1 6v524q0 18 -10 28t-20 11l-10 1v0zM227 488z" />
    <glyph glyph-name="uniE617" unicode="&#xe617;" 
d="M848 768h-672q-51 0 -81.5 -30t-30.5 -80v-526q0 -50 41.5 -91t92.5 -41h627q51 0 92.5 41t41.5 91v526q0 50 -30 80t-81 30zM892 132q0 -22 -22 -44t-45 -22h-627q-23 0 -45 22t-22 44v416l362 -245q8 -6 18.5 -6t19.5 6l361 245v-416zM892 628l-380 -258l-381 258v30
q0 44 45 44h672q44 0 44 -44v-30z" />
    <glyph glyph-name="uniE618" unicode="&#xe618;" horiz-adv-x="1044" 
d="M891 -62q-74 -73 -169.5 -111.5t-200 -38.5t-199.5 38.5t-169 111t-113.5 166t-39.5 196.5t39.5 196.5t113.5 166t169 111t199.5 38.5t200 -38.5t169.5 -111.5q100 -98 135.5 -230t0 -264t-135.5 -230zM836 605q-63 63 -144 96.5t-170 33.5t-170 -33.5t-144 -96.5
t-96.5 -144t-33.5 -170t33.5 -170.5t96.5 -144.5t144 -96.5t170 -33.5t170 33.5t144 96.5q85 86 115.5 200.5t0 229t-115.5 199.5zM763 252h-203v-203q0 -12 -8.5 -20.5t-20.5 -8.5h-19q-12 0 -20.5 8.5t-8.5 20.5v203h-203q-12 0 -20.5 8.5t-8.5 20.5v19q0 12 8.5 20.5
t20.5 8.5h203v203q0 12 8.5 20.5t20.5 8.5h19q12 0 20.5 -8.5t8.5 -20.5v-203h203q12 0 20.5 -8.5t8.5 -20.5v-19q0 -12 -8.5 -20.5t-20.5 -8.5z" />
    <glyph glyph-name="uniE619" unicode="&#xe619;" 
d="M924 691h-824q-15 0 -25.5 -10.5t-10.5 -25t10.5 -25t25.5 -10.5h70v-577q0 -44 37 -75t81 -31h448q41 0 67.5 29.5t26.5 76.5v577h94q15 0 25.5 10.5t10.5 25t-10.5 25t-25.5 10.5zM759 43q0 -36 -23 -36h-448q-16 0 -31.5 11.5t-15.5 24.5v577h518v-577zM406 761h212
q15 0 25 10.5t10 25t-10 25t-25 10.5h-212q-15 0 -25 -10.5t-10 -25t10 -25t25 -10.5zM394.5 66q14.5 0 25 10.5t10.5 24.5v425q0 14 -10.5 24.5t-25 10.5t-25 -10.5t-10.5 -24.5v-425q0 -14 10.5 -24.5t25 -10.5zM606.5 66q14.5 0 25 10.5t10.5 24.5v425q0 14 -10.5 24.5
t-25 10.5t-25 -10.5t-10.5 -24.5v-425q0 -14 10.5 -24.5t25 -10.5z" />
    <glyph glyph-name="uniE61A" unicode="&#xe61a;" 
d="M512 832q-91 0 -174 -35.5t-143 -95.5t-95.5 -143t-35.5 -174t35.5 -173.5t95.5 -142.5t143 -95.5t174 -35.5t173.5 35.5t142.5 95.5t95.5 142.5t35.5 173.5t-35.5 174t-95.5 143t-142.5 95.5t-173.5 35.5zM511.5 5q-102.5 0 -190 51t-138 138.5t-50.5 190t50.5 190
t138 138t190 50.5t190 -50.5t138.5 -138t51 -190t-51 -190t-138.5 -138.5t-190 -51zM466 637q0 14 10 24t24 10t24.5 -10t10.5 -24v-230h160q15 0 25 -10t10 -24t-10 -24.5t-25 -10.5h-185q-18 0 -31 13t-13 32v254z" />
    <glyph glyph-name="uniE61B" unicode="&#xe61b;" 
d="M857 781q19 0 33 -14.5t14 -34.5v-220q0 -20 -14 -34v0q-14 -14 -33 -14h-218q-20 0 -34 14.5t-14 34.5v219q0 20 14 34.5t34 14.5h218zM334 781h51q20 0 34 -15q14 -14 14 -33v0v-218q0 -20 -14 -34t-34 -14h-220q-20 0 -34 14t-14 34v218q0 20 14 34t34 14h169z
M382 309q20 0 34 -14t14 -34v-220q0 -20 -14 -34t-34 -14h-218q-19 0 -33 14t-14 34v220q0 20 14 34t33 14h218zM856 306q20 0 34 -14t14 -34v0v-218q0 -19 -14 -33t-34 -14h-220q-20 0 -34 14t-14 33v218q0 20 14 34t34 14h220zM857 832h-218q-41 0 -70 -29.5t-29 -70.5
v-219q0 -42 29 -71t70 -29h218q41 0 70 29t29 70v220q0 41 -29 70.5t-70 29.5zM385 832h-220q-41 0 -70.5 -29t-29.5 -70v-218q0 -41 29.5 -70t70.5 -29h220q41 0 70 29t29 70v218q0 41 -29 70t-70 29v0zM382 360h-218q-41 0 -70 -29t-29 -70v-220q0 -41 29 -70t70 -29h218
q41 0 70 29t29 70v220q0 41 -29 70t-70 29zM856 357h-220q-41 0 -70 -29t-29 -70v-218q0 -41 29 -69.5t70 -28.5h220q41 0 70.5 29t29.5 69v218q0 41 -29.5 70t-70.5 29z" />
    <glyph glyph-name="uniE61C" unicode="&#xe61c;" 
d="M947 587l-66 154q-13 33 -42.5 52t-64.5 19h-524q-35 0 -64 -19t-43 -52l-65 -154q-30 -63 5 -124q21 -38 58 -55v-336q0 -48 36 -82t87 -34h497q50 0 86 34t36 82v336q38 17 59 55q34 61 5 124zM586 19h-148v184q0 13 11.5 22.5t27.5 9.5h71q15 0 26.5 -9.5t11.5 -22.5
v-184zM761 19h-111v184q0 39 -30 67t-72 28h-71q-42 0 -72.5 -28t-30.5 -67v-184h-110q-25 0 -42 15.5t-17 37.5v326q58 4 95 49q42 -50 106.5 -50t105.5 50q42 -50 106.5 -50t105.5 50q37 -45 96 -49v-326q0 -22 -17.5 -37.5t-41.5 -15.5zM886 494q-16 -30 -48 -33
q-20 -2 -39 7t-30 26q-17 23 -45 23t-44 -23q-22 -33 -61.5 -33t-61.5 33q-16 23 -44.5 23t-44.5 -23q-22 -33 -61.5 -33t-61.5 33q-16 23 -44.5 23t-44.5 -23q-25 -37 -69 -33q-32 3 -49 33q-18 33 -2 67l66 155q6 15 19 24t29 9h524q16 0 29.5 -9t19.5 -24l65 -155l1 -1
q16 -33 -3 -66z" />
    <glyph glyph-name="uniE61D" unicode="&#xe61d;" 
d="M837 743h-653q-50 0 -85 -35t-35 -84v-480q0 -49 35 -84t85 -35h653q50 0 85 35t35 84v480q0 49 -35 84t-85 35zM892 308h-240q-31 0 -53.5 22t-22.5 54t22.5 54t53.5 22h240v-152zM892 526h-240q-59 0 -100.5 -41.5t-41.5 -100.5t41.5 -100.5t100.5 -41.5h240v-98
q0 -22 -16 -38t-39 -16h-653q-23 0 -39 16t-16 38v480q0 22 16 38t39 16h653q23 0 39 -16t16 -38v-98zM619 384q0 -18 13 -31t31 -13t30.5 13t12.5 31t-12.5 31t-30.5 13t-31 -13t-13 -31z" />
    <glyph glyph-name="uniE61E" unicode="&#xe61e;" 
d="M512 -63q-16 0 -20 5q-22 25 -65.5 79t-121 160t-104.5 164q-33 72 -33 148q0 92 46 170t125.5 123.5t172.5 45.5t172.5 -46t125.5 -124.5t46 -170.5q0 -81 -37 -149q-32 -59 -109 -165.5t-115 -155t-62 -78.5q-5 -6 -20 -6h-1zM512 624q-55 0 -93.5 -39t-38.5 -93.5
t38.5 -93.5t93.5 -39t93.5 39t38.5 93.5t-38.5 93.5t-93.5 39z" />
    <glyph glyph-name="uniE61F" unicode="&#xe61f;" 
d="M680 281q-8 2 -18.5 -4t-17.5 -13l-6 -7q-11 -10 -22 -36q-8 -18 -26.5 -23.5t-34.5 5.5q-65 44 -124.5 103.5t-102.5 123.5q-10 16 -5 34t22 26l39 20l-1 1q11 5 16 15.5t2 21.5q-116 284 -149 284q-78 0 -133 -55t-55 -133q0 -34 13 -67q65 -227 232.5 -394t393.5 -233
q33 -13 68 -13q78 0 133.5 53t55.5 130q1 1 -39 28.5t-110 67.5t-131 65z" />
    <glyph glyph-name="uniE620" unicode="&#xe620;" 
d="M511 685q-104 0 -192.5 -51.5t-140 -140t-51.5 -192.5t51.5 -192.5t140 -140t192.5 -51.5t192.5 51.5t140 140t51.5 192.5t-51.5 192.5t-140 140t-192.5 51.5zM539 90q-11 -11 -25 -11q-18 0 -28.5 11t-10.5 25q0 15 11 26t26.5 11t26.5 -11t11 -26q0 -14 -11 -25z
M627.5 395q-9.5 -23 -50.5 -61q-30 -29 -40.5 -45.5t-10.5 -34.5q0 -7 5.5 -21.5t4.5 -22.5q0 -12 -9 -18t-19 -4q-8 -1 -16 6.5t-10 15.5q-7 32 -7 45q0 20 8.5 39.5t44.5 53.5t44.5 51.5t8.5 33.5q0 28 -20 44t-50 16q-16 0 -32.5 -7t-29.5 -15.5t-16 -9.5
q-11 -5 -18.5 -3t-11.5 6l-4 4q-1 3 -2 7t3.5 15t18.5 20q43 30 100 30q53 0 85.5 -26.5t32.5 -73.5q0 -22 -9.5 -45z" />
    <glyph glyph-name="uniE621" unicode="&#xe621;" 
d="M636 284q-3 1 -6.5 3t-8.5 8t-8 15t-2.5 24t6.5 34q44 45 72 111.5t28 134.5q0 103 -59 160.5t-146 57.5t-146 -57.5t-59 -160.5q0 -68 28 -134.5t73 -112.5q6 -22 6 -37t-8 -25.5t-13.5 -14.5t-10.5 -6q-63 -23 -117.5 -52t-94.5 -67.5t-40 -74.5v-28q0 -126 383 -126
q381 0 381 126v28q0 37 -40.5 75.5t-96.5 67.5t-121 51z" />
    <glyph glyph-name="uniE622" unicode="&#xe622;" 
d="M62 19v112h900v-112h-900zM62 356h900v-112h-900v112zM62 581h900v-112h-900v112z" />
    <glyph glyph-name="uniE623" unicode="&#xe623;" 
d="M921 345h-818q-16 0 -27.5 11.5t-11.5 27.5t11.5 27.5t27.5 11.5h818q16 0 27.5 -11.5t11.5 -27.5t-11.5 -27.5t-27.5 -11.5zM512 -64q-16 0 -27.5 11.5t-11.5 26.5v819q0 16 11.5 27.5t27.5 11.5t27.5 -11.5t11.5 -27.5v-819q0 -15 -11.5 -26.5t-27.5 -11.5z" />
    <glyph glyph-name="uniE624" unicode="&#xe624;" 
d="M919 124h-208v-272h-417v272h-209l417 407zM85 748h854v-104h-854v104z" />
    <glyph glyph-name="uniE625" unicode="&#xe625;" 
d="M850.5 0q-18.5 0 -31.5 14l-678 677q-13 13 -13 32t13 32t31.5 13t32.5 -13l677 -678q13 -13 13 -31.5t-13 -32t-31.5 -13.5zM172.5 0q-18.5 0 -31.5 13.5t-13 32t13 31.5l678 678q13 13 31.5 13t31.5 -13t13 -32t-13 -32l-677 -677q-14 -14 -32.5 -14z" />
    <glyph glyph-name="uniE626" unicode="&#xe626;" 
d="M873 132q-26 18 -42.5 36t-27.5 38.5t-15.5 55t-6 70.5t-1.5 100q0 58 -18 102.5t-50 71t-68.5 41t-80.5 20.5q2 6 2 13q0 22 -16.5 38.5t-39 16.5t-39 -16t-16.5 -39q0 -6 2 -12q-44 -6 -80 -20t-66.5 -40.5t-48 -70.5t-17.5 -103q0 -64 -1.5 -100t-6 -71t-15.5 -55.5
t-27.5 -39t-42.5 -36.5q-42 -27 -59 -70t-5.5 -75.5t43.5 -32.5h764q32 0 43.5 32.5t-5.5 75.5t-59 70zM908 -1q-4 -14 -14 -14h-764q-10 0 -14 14q-7 22 6 54t45 53q26 17 44 34t30 39.5t18.5 43.5t10 57t4.5 67.5t1 86.5q0 180 185 203l34 4l-8 34q-1 3 -1 5q0 10 7 17
t17.5 7t17.5 -7t7 -17q0 -3 -1 -6l-7 -34l33 -4q190 -23 190 -204q0 -55 1 -86t4.5 -67t10 -56.5t18.5 -43t30 -39.5t44 -33q32 -22 45 -54t6 -54zM512 -159q-33 0 -58 22t-29 55h174q-4 -33 -29 -55t-58 -22z" />
    <glyph glyph-name="uniE627" unicode="&#xe627;" horiz-adv-x="1000" 
d="M831 533h-198v-317h-238v317h-198l317 317z" />
    <glyph glyph-name="uniE629" unicode="&#xe629;" 
d="M678 278h-334q-9 0 -16 6.5t-7 16t7 16.5t16 7h334q10 0 16.5 -7t6.5 -16.5t-6.5 -16t-16.5 -6.5zM511 -147q-91 0 -174 35.5t-143 95.5t-95.5 143t-35.5 174t35.5 174t95.5 143t143 95.5t174 35.5t174 -35.5t143 -95.5t96 -143t36 -174t-36 -174t-96 -143t-143 -95.5
t-174 -35.5zM511 703q-109 0 -201.5 -54t-146.5 -146.5t-54 -201.5t54 -201.5t146.5 -146.5t201.5 -54t202 54t146.5 146.5t53.5 201.5t-53.5 201.5t-146.5 146.5t-202 54z" />
    <glyph glyph-name="uniE62A" unicode="&#xe62a;" 
d="M512 832q-91 0 -174 -35.5t-143 -95.5t-95.5 -143t-35.5 -174t35.5 -174t95.5 -143t143 -95t174 -35t174 35t143 95t95 143t35 174t-35 174t-95 143t-143 95.5t-174 35.5zM752 203q13 -12 13 -29.5t-12.5 -30t-30 -12.5t-29.5 13l-181 181l-182 -181q-12 -13 -29.5 -13
t-29.5 12.5t-12 30t12 29.5l181 181l-181 182q-12 12 -12 29.5t12 29.5t29.5 12t29.5 -12l182 -181l181 181q12 12 29.5 12t30 -12t12.5 -29.5t-13 -29.5l-181 -182z" />
    <glyph glyph-name="uniE62D" unicode="&#xe62d;" 
d="M1024 378q0 106 -40.5 202t-110 165.5t-165.5 110t-202 40.5q-102 0 -195.5 -40.5t-161.5 -109.5t-108.5 -165.5t-40.5 -202.5q0 -102 40.5 -195.5t108.5 -161.5t161.5 -108.5t195.5 -40.5q106 0 202.5 40.5t165.5 108.5t109.5 161.5t40.5 195.5zM283 332q-7 7 -7.5 17
t4.5 17l4 5q5 7 14 8.5t16 -4.5l111 -85q7 -5 17.5 -5t17.5 6l308 257q7 6 16.5 5.5t16.5 -7.5l-2 2q6 -6 6 -15t-6 -16l-340 -334q-7 -7 -16 -7t-16 7z" />
    <glyph glyph-name="uniE62F" unicode="&#xe62f;" horiz-adv-x="1025" 
d="M511 262q145 0 255.5 -92.5t136.5 -233.5h55q-23 143 -125.5 246t-245.5 127q81 28 132 98t51 157q0 112 -79 191t-190.5 79t-190.5 -79t-79 -191q0 -89 52.5 -160t136.5 -97q-138 -28 -235.5 -130t-120.5 -241h55q26 141 136.5 233.5t255.5 92.5zM285 564.5
q0 89.5 63 152.5t152.5 63t152.5 -63t63 -152.5t-63 -153t-152.5 -63.5t-152.5 63.5t-63 153z" />
    <glyph glyph-name="uniE630" unicode="&#xe630;" 
d="M836 7h-652q-50 0 -85 35t-35 85v521q0 50 35 85t85 35h652q49 0 84.5 -35t35.5 -85v-521q0 -50 -35.5 -85t-84.5 -35zM184 703q-23 0 -39 -16t-16 -39v-521q0 -23 16 -39t39 -16h652q22 0 38 16t16 39v521q0 23 -16 39t-38 16h-652zM477.5 128q-13.5 0 -23.5 10
l-107 107l-99 -99q-10 -9 -23.5 -9t-23 9.5t-9.5 23t9 22.5l123 123q9 9 23 9t23 -9l130 -131q10 -9 10 -22.5t-9.5 -23.5t-23 -10zM798.5 178q-13.5 0 -22.5 10l-185 184l-84 -84q-10 -10 -23.5 -10t-23 9.5t-9.5 23t10 23.5l107 107q10 10 23.5 10t22.5 -10l208 -207
q10 -10 10 -23.5t-10 -23t-23.5 -9.5zM375.5 431q-49.5 0 -84.5 35t-35 84.5t35 84.5t84.5 35t84.5 -35t35 -84.5t-35 -84.5t-84.5 -35zM375.5 605q-22.5 0 -38.5 -16t-16 -38.5t16 -38.5t38.5 -16t38.5 16t16 38.5t-16 38.5t-38.5 16z" />
    <glyph glyph-name="uniE631" unicode="&#xe631;" 
d="M715 -63h-440q-92 0 -152 64.5t-60 163.5v384q0 17 12 29t29 12t29 -12t12 -29v-384q0 -64 36 -105t94 -41h440q64 0 114 44.5t50 101.5v384q0 17 11.5 29t28.5 12t28.5 -12t11.5 -29v-384q0 -91 -73 -159.5t-171 -68.5zM511 141q-17 0 -29 12t-12 29v610q0 17 12 29
t29 12t29 -12t12 -29v-610q0 -17 -12 -29t-29 -12zM511 141q-17 0 -29 12t-12 29v610q0 17 12 29t29 12t29 -12t12 -29v-610q0 -17 -12 -29t-29 -12zM511 129q-17 0 -29 12l-191 192q-12 11 -12 28t12 29t28.5 12t28.5 -12l163 -163l163 163q12 12 29 12t29 -12t12 -29
t-12 -28l-192 -192q-12 -12 -29 -12z" />
    <glyph glyph-name="uniE632" unicode="&#xe632;" 
d="M512 710q-98 0 -181.5 -39.5t-132 -107t-48.5 -147.5q0 -67 35.5 -126.5t100.5 -102.5q-31 -70 -98 -106l-36 -20l41 -2q9 -1 28 -1q61 0 122 16q67 18 122 52q27 -3 47 -3q98 0 181.5 39.5t132 107t48.5 147.5q0 79 -48.5 146.5t-132 107t-181.5 39.5v0zM324 184l7 19
l-18 10q-60 37 -93 90t-33 113q0 106 94 181q45 36 103 56q61 20 127.5 20t127.5 -20q59 -20 103 -56q94 -75 94 -181q0 -105 -94 -180q-45 -36 -103 -56q-61 -20 -127 -20q-26 0 -47 2l-9 1l-7 -5q-52 -32 -116 -49q-32 -8 -64 -12q36 37 55 87v0zM324 184zM568 475h-213
q-9 0 -15 6t-6 15t6 15t15 6h213q9 0 15 -6t6 -15t-6 -15t-15 -6zM568 475zM690 342h-367q-9 0 -15 6.5t-6 15.5t6 15t15 6h367q9 0 15 -6t6 -15q1 -9 -5.5 -15.5t-15.5 -6.5zM690 342z" />
    <glyph glyph-name="uniE636" unicode="&#xe636;" 
d="M420 631h338q7 0 11.5 4.5t4.5 11t-4.5 11t-11.5 4.5h-338q-7 0 -11.5 -4.5t-4.5 -11t4.5 -11t11.5 -4.5zM420 554h338q7 0 11.5 4.5t4.5 11t-4.5 11t-11.5 4.5h-338q-7 0 -11.5 -4.5t-4.5 -11t4.5 -11t11.5 -4.5zM281 554h77q7 0 11.5 4.5t4.5 11.5v77q0 6 -4.5 10.5
t-11.5 4.5h-77q-6 0 -10.5 -4.5t-4.5 -10.5v-77q0 -7 4.5 -11.5t10.5 -4.5zM297 631h46v-46h-46v46zM420 261h338q7 0 11.5 4.5t4.5 11t-4.5 11t-11.5 4.5h-338q-7 0 -11.5 -4.5t-4.5 -11t4.5 -11t11.5 -4.5zM420 184h338q7 0 11.5 4.5t4.5 10.5t-4.5 10.5t-11.5 4.5h-338
q-7 0 -11.5 -4.5t-4.5 -10.5t4.5 -10.5t11.5 -4.5zM281 184h77q7 0 11.5 4.5t4.5 10.5v77q0 7 -4.5 11.5t-11.5 4.5h-77q-6 0 -10.5 -4.5t-4.5 -11.5v-77q0 -6 4.5 -10.5t10.5 -4.5zM297 261h46v-47h-46v47zM420 446h338q7 0 11.5 4.5t4.5 11t-4.5 11t-11.5 4.5h-338
q-7 0 -11.5 -4.5t-4.5 -11t4.5 -11t11.5 -4.5zM420 369h338q7 0 11.5 4.5t4.5 11t-4.5 11t-11.5 4.5h-338q-7 0 -11.5 -4.5t-4.5 -11t4.5 -11t11.5 -4.5zM281 369h77q7 0 11.5 4.5t4.5 10.5v77q0 7 -4.5 11.5t-11.5 4.5h-77q-6 0 -10.5 -4.5t-4.5 -11.5v-77q0 -6 4.5 -10.5
t10.5 -4.5zM297 446h46v-46h-46v46zM843 832h-662q-9 0 -16 -7t-7 -16v-849q0 -10 7 -16.5t16 -6.5h522q9 0 16 6l140 139q7 7 7 17v710q0 9 -7 16t-16 7zM727 17v58h60zM820 122h-116q-9 0 -16 -7t-7 -16v-116h-477v803h616v-664z" />
    <glyph glyph-name="uniE637" unicode="&#xe637;" 
d="M1013 278l-157 158q-7 7 -17 7t-17 -7l-158 -158q-8 -6 -4 -19.5t19 -13.5h116q-36 -83 -113 -134.5t-171 -51.5q-89 0 -163.5 48t-113.5 126h-97q43 -117 145 -190t230 -73q131 0 235 77t143 198h113q14 0 16 13.5t-6 19.5zM512 705q90 0 165 -48t113 -126h97
q-41 117 -143.5 190t-229.5 73q-131 0 -235 -76.5t-143 -198.5h-115q-14 0 -16 -13t6 -20l157 -157q7 -7 17 -7t17 7l157 157q8 7 4.5 20t-18.5 13h-117q37 84 113.5 135t170.5 51z" />
    <glyph glyph-name="uniE638" unicode="&#xe638;" 
d="M995 -39l-259 249q69 82 90 186t-10 206t-110 178q-81 78 -189 104.5t-215 -4.5t-186 -112q-78 -82 -104.5 -190t4 -214.5t112.5 -185.5q71 -68 163 -97t185.5 -15.5t172.5 66.5l265 -254q11 -11 20 -1l62 64q9 10 -1 20zM199 251q-94 91 -96.5 221.5t87.5 224.5
q59 62 140 85t162.5 3t143.5 -79q94 -90 96.5 -221t-87.5 -225q-91 -94 -221.5 -96.5t-224.5 87.5z" />
    <glyph glyph-name="uniE639" unicode="&#xe639;" 
d="M436 827h-320q-21 0 -36 -15t-15 -36v-316q0 -21 15 -36t36 -15h320q21 0 36 15t15 36v316q0 21 -15 36t-36 15zM436 362h-320q-21 0 -36 -15t-15 -36v-316q0 -21 15 -36t36 -15h320q21 0 36 15t15 36v316q0 21 -15 36t-36 15zM908 362h-321q-21 0 -36 -15t-15 -36v-316
q0 -21 15 -36t36 -15h321q21 0 36 15t15 36v316q0 21 -15 36t-36 15zM610 406h274q30 0 52 22t22 52v270q0 30 -22 51.5t-52 21.5h-274q-31 0 -52.5 -21.5t-21.5 -51.5v-270q0 -30 21.5 -52t52.5 -22zM597 750q0 5 4 9t9 4h274q5 0 9 -4t4 -9v-270q0 -5 -4 -9t-9 -4h-274
q-5 0 -9 4t-4 9v270z" />
    <glyph glyph-name="uniE63C" unicode="&#xe63c;" 
d="M297 -59q-8 0 -14 3q-14 9 -14 24v152h-63q-57 0 -97 41t-40 99v437q0 57 39.5 96.5t97.5 39.5h620q57 0 97 -39.5t40 -96.5v-437q0 -58 -40.5 -99t-96.5 -41h-212l-303 -176q-6 -3 -14 -3zM206 776q-35 0 -58.5 -22.5t-23.5 -56.5v-437q0 -35 24.5 -60t57.5 -25h91
q11 0 19 -7.5t8 -19.5v-132l269 156q6 3 14 3h219q33 0 57.5 25t24.5 60v437q0 34 -24 56.5t-58 22.5h-620zM297 479zM224 478.5q0 30.5 21.5 51.5t51.5 21t51.5 -21t21.5 -51.5t-21.5 -51.5t-51.5 -21t-51.5 21t-21.5 51.5zM516 479zM443 478.5q0 30.5 21 51.5t51.5 21
t52 -21t21.5 -51.5t-21.5 -51.5t-52 -21t-51.5 21t-21 51.5zM734 479zM662 478.5q0 30.5 21 51.5t51.5 21t51.5 -21t21 -51.5t-21 -51.5t-51.5 -21t-51.5 21t-21 51.5z" />
    <glyph glyph-name="uniE63D" unicode="&#xe63d;" 
d="M718 887h-408q-47 0 -80 -33t-33 -80v-789q0 -47 33 -80t80 -33h408q46 0 79 33t33 80v789q0 47 -33 80t-79 33zM771 -15q0 -22 -15.5 -38t-37.5 -16h-408q-22 0 -38 16t-16 38v789q0 22 16 38t38 16h408q22 0 37.5 -16t15.5 -38v-789zM390 754h168v-60h-168v60zM597 754
h40v-60h-40v60zM510.5 129q-37.5 0 -64.5 -27t-27 -64.5t27 -64.5t64.5 -27t64.5 27t27 64.5t-27 64.5t-64.5 27zM510.5 5q-13.5 0 -22.5 9.5t-9 23t9 23t22.5 9.5t23 -9.5t9.5 -23t-9.5 -23t-23 -9.5z" />
    <glyph glyph-name="uniE640" unicode="&#xe640;" 
d="M512 -113q-101 0 -193 39.5t-158.5 106t-106 158.5t-39.5 193t39.5 193t106 158.5t158.5 106t193 39.5t193 -39.5t158.5 -106t106 -158.5t39.5 -193t-39.5 -193t-106 -158.5t-158.5 -106t-193 -39.5zM512 819q-88 0 -168.5 -34.5t-139 -93t-93 -139t-34.5 -168.5
t34.5 -168.5t93 -139t139 -93t168.5 -34.5t168.5 34.5t139 93t93 139t34.5 168.5t-34.5 168.5t-93 139t-139 93t-168.5 34.5zM556 384l132 -132q9 -9 9 -22t-9 -22t-22 -9t-22 9l-132 132l-132 -132q-9 -10 -22 -10t-22.5 9.5t-9.5 22.5t9 22l133 132l-132 132q-9 9 -9 22
t9 22t22 9t22 -9l132 -132l133 133q9 10 22 10t22.5 -9.5t9.5 -22.5t-10 -22z" />
    <glyph glyph-name="uniE642" unicode="&#xe642;" 
d="M111 37h820v-61h-820v61zM142 -56h758v-82h-758v82zM142 -27h58v-25h-58v25zM242 -27h58v-25h-58v25zM341 -27h58v-25h-58v25zM440 -27h59v-25h-59v25zM541 -27h59v-25h-59v25zM641 -27h58v-25h-58v25zM740 -27h58v-25h-58v25zM842 -27h58v-25h-58v25zM533 557l-2 -504
h194q4 4 11 11.5t22.5 32t28 53.5t24 76.5t13.5 99.5q3 48 -13.5 93.5t-38 74.5t-49.5 53.5t-40.5 32.5t-19.5 11l1 1q-24 -6 -69.5 -19t-61.5 -16zM210 326q3 -52 15 -100t26 -77t30.5 -53.5t24 -31.5t10.5 -11h194l2 502q-42 5 -137 38q-11 -6 -24.5 -15t-41.5 -35
t-49 -54.5t-36.5 -72.5t-13.5 -90zM1014 406q-12 76 -69.5 135.5t-130.5 68.5q-45 6 -122 -12q17 -11 34.5 -25t41 -40.5t40.5 -55t28.5 -69t9.5 -83.5q-4 -70 -22.5 -131t-35 -90t-34.5 -51h183q1 0 11 20.5t24.5 55t27 80t17.5 95.5t-3 102zM189 325q-2 43 10 84.5
t30 70.5t42.5 55.5t42.5 40.5t35 26q-8 3 -24 8.5t-23 8.5q-59 21 -122 0t-94 -55q-38 -40 -57 -90t-20 -97.5t7.5 -96t23 -88t29.5 -72t25 -49.5t11 -18h182q-20 23 -37.5 51.5t-37 89.5t-23.5 131zM524 655zM449 655q0 31 22 53t53.5 22t53.5 -22t22 -53t-22 -53
t-53.5 -22t-53.5 22t-22 53z" />
    <glyph glyph-name="uniE643" unicode="&#xe643;" 
d="M834 171q16 0 28 12t12 28.5t-12 28.5t-28 12h-458l-122 496q-3 14 -14 23t-25 9h-109q-17 0 -29 -12t-12 -28.5t12 -28.5t29 -12h77l122 -496q3 -14 14 -23t25 -9h490zM834 171zM824 333q12 0 23 11t16 25l94 291q5 17 -6 32q-2 4 -6.5 5.5t-7.5 2t-9.5 0t-9.5 -0.5
h-651q-16 0 -28 -12t-12 -28.5t12 -28.5t28 -12h595l-67 -202h-487q-17 0 -29 -12.5t-12 -29t12 -29t29 -12.5h516zM824 333zM408 143q32 0 54.5 -22.5t22.5 -55t-22.5 -55t-55 -22.5t-55 22.5t-22.5 55t22.5 55t55.5 22.5zM408 143zM762 143q32 0 55 -22.5t23 -55t-23 -55
t-55 -22.5t-54.5 22.5t-22.5 55t22.5 55t54.5 22.5zM762 143z" />
    <glyph glyph-name="uniE646" unicode="&#xe646;" 
d="M1001 187q0 68 -40.5 126.5t-108.5 92t-145 33.5q-123 0 -208.5 -73.5t-85.5 -178t85.5 -178t208.5 -73.5q35 0 104 17l95 -52l-26 87q121 91 121 199zM612 231q-13 0 -24 10.5t-11 23.5t11 24t24 11q18 0 30.5 -10.5t12.5 -24t-12 -24t-31 -10.5zM802 231
q-13 0 -23.5 10.5t-10.5 23.5t10.5 24t23.5 11q19 0 31 -10.5t12 -24t-12 -24t-31 -10.5zM685 457q15 0 34 -2q-23 105 -122.5 174.5t-227.5 69.5q-94 0 -173.5 -39t-126 -107t-46.5 -149q0 -137 138 -234l-34 -104l121 61q88 -18 121 -18q15 0 32 2q-10 36 -10 72
q0 114 85.5 194t208.5 80zM499 551q20 0 31.5 -11.5t11.5 -31t-12 -31.5t-31 -12q-20 0 -36 12t-16 31t16 31t36 12zM257 465q-21 0 -37 12t-16 31t16 31t37 12q19 0 31 -11.5t12 -31t-12 -31.5t-31 -12z" />
    <glyph glyph-name="uniE647" unicode="&#xe647;" 
d="M890 32q-18 25 -41.5 60.5t-44 78.5t-35.5 91t-15 98q0 48 -13.5 87.5t-35.5 70t-52 51.5t-64 31q7 11 11 24.5t4 27.5q0 40 -27.5 68t-68 28t-68.5 -28t-28 -68q0 -28 16 -54q-31 -10 -60.5 -31t-51.5 -50.5t-36 -69t-14 -88.5q0 -52 -14.5 -99t-35 -89t-43 -78.5
t-39.5 -65.5q-11 -17 -4.5 -28.5t20.5 -11.5h721q5 0 11 3.5t10 9.5t4.5 14.5t-6.5 17.5zM536 625q-11 -11 -27 -12h-2q-16 0 -26.5 11.5t-10.5 27.5q0 17 10.5 27.5t27.5 10.5t28 -10.5t11 -27.5q0 -16 -11 -27zM512 -148q38 0 65.5 27.5t27.5 65.5h-186q0 -38 27.5 -65.5
t65.5 -27.5z" />
    <glyph glyph-name="uniE648" unicode="&#xe648;" 
d="M856 184q-6 81 -83 167q3 7 4.5 21.5t-5 37.5t-22.5 40v2q0 107 -67 177t-164 71q-97 -1 -163.5 -71t-66.5 -177v-2q-17 -17 -23 -40t-5 -37.5t4 -21.5q-77 -86 -83 -167q-2 -41 12 -59q7 -7 17 -4.5t23.5 17.5t24.5 38q13 -46 54 -100q-26 -6 -42 -24t-17 -36.5t7 -35.5
q23 -38 93 -38q106 0 150 42q5 5 15 5t16 -5q43 -42 149 -42q70 0 94 38q7 17 6.5 35.5t-16.5 36.5t-42 24q40 54 53 100q11 -23 24.5 -38t24 -17.5t16.5 4.5q14 18 12 59z" />
    <glyph glyph-name="uniE649" unicode="&#xe649;" 
d="M833 523.5q0 -14.5 -10 -24.5l-287 -297q-10 -10 -24 -10t-23 10l-287 297q-10 10 -10 24.5t9.5 24.5t23.5 10t23 -10l264 -273l264 273q10 10 23.5 10t23.5 -10t10 -24.5z" />
    <glyph glyph-name="uniE64A" unicode="&#xe64a;" 
d="M833 226q0 14 -10 24l-287 298q-10 10 -24 10t-23 -10l-287 -298q-10 -10 -10 -24t9.5 -24t23.5 -10t23 10l264 273l264 -273q10 -10 23.5 -10t23.5 10t10 24z" />
    <glyph glyph-name="uniE64B" unicode="&#xe64b;" 
d="M651 704q-14 0 -25 -9l-297 -288q-10 -9 -10 -23t10 -23l297 -288q11 -9 25 -9t24 9.5t10 23.5t-10 23l-273 264l273 264q10 9 10 23t-10 23.5t-24 9.5z" />
    <glyph glyph-name="uniE64C" unicode="&#xe64c;" 
d="M868 441q30 0 34 42t-15.5 84t-46.5 42q11 5 10.5 36.5t-20.5 67.5t-46 36q0 40 -33 62t-79 22q-66 0 -107.5 -6t-65 -16t-45.5 -21t-65.5 -22.5t-108.5 -18.5v28h-112q-23 0 -39.5 -24.5t-16.5 -59.5v-336q0 -35 16.5 -59.5t39.5 -24.5h112v28h-56v448h56v-448
q106 -32 201.5 -90t157 -132t61.5 -142q11 0 23.5 3.5t26 14t23 26t12.5 42.5t-3 60.5t-26.5 82.5t-55.5 107h168q24 0 38 17t15 42t-4 49.5t-19 42t-30 17.5z" />
    <glyph glyph-name="uniE64D" unicode="&#xe64d;" 
d="M512 384zM448 384q0 26 18.5 45t45 19t45.5 -19t19 -45t-19 -45t-45.5 -19t-45 19t-18.5 45zM256 384zM192 384q0 26 18.5 45t45 19t45.5 -19t19 -45t-19 -45t-45.5 -19t-45 19t-18.5 45zM768 384zM704 384q0 26 18.5 45t45 19t45.5 -19t19 -45t-19 -45t-45.5 -19t-45 19
t-18.5 45z" />
    <glyph glyph-name="uniE64E" unicode="&#xe64e;" 
d="M870 832h-716q-38 0 -64 -26t-26 -64v-716q0 -37 26 -63t64 -26h716q37 0 63 26t26 63v716q0 38 -26 64t-63 26zM883 574l-414 -414q-13 -14 -31.5 -14t-32.5 14l-246 246q-13 13 -13 31.5t13 31.5t31.5 13t32.5 -13l214 -214l383 382q13 13 31.5 13t31.5 -13t13 -31.5
t-13 -31.5z" />
    <glyph glyph-name="uniE64F" unicode="&#xe64f;" 
d="M870 765q9 0 15.5 -6.5t6.5 -16.5v-716q0 -9 -6.5 -15.5t-15.5 -6.5h-716q-10 0 -16.5 6.5t-6.5 15.5v716q0 10 6.5 16.5t16.5 6.5h716zM870 832h-716q-37 0 -63.5 -26.5t-26.5 -63.5v-716q0 -37 26.5 -63t63.5 -26h716q37 0 63 26t26 63v716q0 37 -26 63.5t-63 26.5z
" />
    <glyph glyph-name="uniE653" unicode="&#xe653;" 
d="M716 487l-300 -301l-134 135q-10 9 -23 9t-22.5 -9.5t-9.5 -22.5t10 -22l157 -158q10 -9 23 -9t22 9q2 2 4 5l318 319q9 9 9 22.5t-9.5 22.5t-22.5 9t-22 -9zM512 746q-91 0 -173.5 -35t-142.5 -95t-95 -142.5t-35 -173.5t35 -173.5t95 -142.5t142.5 -95t173.5 -35
t173.5 35t142.5 95t95 142.5t35 173.5t-35 173.5t-95 142.5t-142.5 95t-173.5 35zM512 -90q-106 0 -196 52t-142 142t-52 196t52 196t142 142t196 52t196 -52t142 -142t52 -196t-52 -196t-142 -142t-196 -52z" />
    <glyph glyph-name="uniE654" unicode="&#xe654;" 
d="M512 832q-91 0 -174 -35.5t-143 -95.5t-95.5 -143t-35.5 -174t35.5 -174t95.5 -143t143 -95t174 -35t174 35t143 95t95 143t35 174t-35 174t-95 143t-143 95.5t-174 35.5zM512 4q-103 0 -191 51t-139 138.5t-51 190.5t51 191t139 139t191 51t190.5 -51t138.5 -139
t51 -191t-51 -190.5t-138.5 -138.5t-190.5 -51z" />
    <glyph glyph-name="uniE658" unicode="&#xe658;" 
d="M955.5 509.5q7.5 -22.5 1.5 -45t-23 -39.5l-145 -141q-6 -6 -4 -15l34 -200q4 -23 -5 -44.5t-28 -35.5q-22 -16 -48 -16q-21 0 -39 10l-179 94q-8 4 -16 0l-179 -94q-45 -24 -87 6q-19 14 -28 35.5t-5 44.5l35 200q1 9 -5 15l-145 141q-17 17 -23 39.5t1.5 45t25.5 38
t41 18.5l201 29q9 1 13 9l89 182q11 21 30.5 33.5t43.5 12.5t43.5 -12.5t30.5 -33.5l90 -182q4 -8 12 -9l201 -29q23 -3 41 -18.5t25.5 -38zM889 472q7 8 4 18t-14 11l-200 29q-43 7 -62 45l-90 182q-3 6 -8 8q-3 2 -7 2q-10 0 -15 -10l-90 -182q-19 -38 -62 -45l-200 -29
q-11 -1 -14 -11t4 -18l145 -141q31 -30 24 -73l-34 -200q-2 -10 6.5 -16t17.5 -1l180 94q18 9 38 9t38 -9l180 -94q9 -5 17.5 1t6.5 16l-34 200q-7 43 24 73zM893 490q3 -10 -4 -18l-145 -141q-31 -30 -24 -73l34 -200q2 -10 -6.5 -16t-17.5 -1l-180 94q-18 9 -38 9t-38 -9
l-180 -94q-9 -5 -17.5 1t-6.5 16l34 200q7 43 -24 73l-145 141q-7 8 -4 18t14 11l200 29q43 7 62 45l90 182q5 10 15 10q4 0 7 -2q5 -2 8 -8l90 -182q19 -38 62 -45l200 -29q11 -1 14 -11z" />
    <glyph glyph-name="uniE65A" unicode="&#xe65a;" 
d="M495 700q-11 0 -26 -3t-43 -12.5t-62.5 -35.5t-66.5 -64v-302l129 -86q4 -3 10.5 -8t24.5 -23t35 -38t38 -52t36 -66q1 -3 3 -7.5t9 -16.5t14.5 -21.5t18.5 -17t23 -7.5q31 0 62 55q1 3 2 7t2.5 18t0 29.5t-10 40t-23.5 49.5l-87 130h288q2 0 6 0.5t14 4.5t17.5 11
t14 21.5t6.5 34.5q-1 2 -2 6t-7.5 13.5t-17.5 17.5t-34.5 14t-53.5 6q3 1 7.5 3t16.5 8.5t20 13t14 16t3 19t-18 20.5t-43 21l22 14q54 43 -35 84q-19 8 -45 17q8 -1 20 -1q66 0 66 44q1 2 1 5t-4 10t-12 13t-26.5 10.5t-44.5 4.5h-259h-3zM495 743h4h258q80 0 112 -37
q20 -23 18 -51q-1 -29 -18 -50q29 -26 30 -57q1 -21 -9 -40q29 -24 30 -56q0 -16 -7 -30q15 -8 27 -19t17.5 -19.5t9.5 -18.5t4.5 -14t1.5 -6v-2v-2q0 -55 -31.5 -84.5t-67.5 -30.5l-1 -1h-1h-207l42 -62v-1l1 -1q18 -30 28 -59.5t12 -49t-0.5 -38t-4.5 -25.5t-4 -12l-1 -1
l-1 -2q-42 -77 -99 -77q-23 0 -43 12t-33.5 30t-20 30.5t-11.5 23.5q-20 46 -53 88.5t-48.5 57t-27.5 22.5l-128 86l-19 13v23v302v16l10 12q36 42 74.5 71t70.5 40.5t51.5 15t34.5 3.5zM189 671q-27 0 -46 -19t-19 -45v-331q0 -27 19 -46t46 -19t46 19t19 46v331
q0 26 -19 45t-46 19zM189 715q45 0 76.5 -32t31.5 -76v-331q0 -45 -31.5 -76.5t-76.5 -31.5t-76.5 31.5t-31.5 76.5v331q0 44 31.5 76t76.5 32zM189 571q-7 0 -7 -7.5t7 -7.5t7 7.5t-7 7.5zM189 599q15 0 25.5 -10.5t10.5 -25t-10.5 -25t-25.5 -10.5t-25.5 10.5t-10.5 25
t10.5 25t25.5 10.5z" />
    <glyph glyph-name="uniE65C" unicode="&#xe65c;" 
d="M727 351q-15 3 -19.5 9.5t-1.5 11.5l4 5q1 2 3 6.5t5.5 16.5t4.5 23t-4 26t-16 26q-14 15 -37.5 19.5t-46 0.5t-43.5 -9.5t-34 -11.5l-13 -5q-10 -3 -16.5 -4.5t-10.5 0t-5.5 3.5t-1.5 7.5t0.5 9t2.5 12.5t3 15q0 15 -2 28.5t-11 28t-23 22t-41 7t-62 -12.5
q-26 -9 -52.5 -24.5t-48.5 -33.5t-43 -37t-36.5 -37t-27.5 -32t-18 -23l-7 -8q-33 -45 -48.5 -89.5t-16.5 -66.5t1 -22q5 -50 29 -89t57.5 -63.5t78.5 -41.5t86.5 -25t87.5 -11q76 -6 157.5 12t151.5 62.5t99 106.5q17 37 17.5 68.5t-11 52t-29.5 36t-33.5 22.5t-28.5 9z
M415 30q-110 -5 -187.5 43.5t-77.5 122.5t77 127t188 59q112 5 189 -38t77 -116q0 -74 -78.5 -133.5t-187.5 -64.5zM386 316q-108 -12 -128 -109q-5 -26 -2 -48q-1 -2 -0.5 -5t2.5 -11.5t5.5 -16.5t12 -17.5t19.5 -15.5q67 -33 125.5 -20t94.5 59q14 18 18.5 43.5t-2 52
t-23 48.5t-48.5 33.5t-74 6.5zM349 120q-21 -2 -35.5 8.5t-14.5 27.5q0 18 13.5 33.5t33.5 17.5q23 2 38 -9.5t15 -29.5q0 -17 -15 -31t-35 -17zM436 195q-7 -5 -14.5 -4.5t-11.5 7.5q-4 6 -2.5 14.5t8.5 13.5q9 6 16.5 5t11 -7.5t1.5 -14.5t-9 -14zM799 412q9 0 16 6t8 14
v3q4 33 -1.5 58.5t-17 40t-26 23.5t-30 11.5t-28.5 3.5t-21 0l-8 -2q-11 0 -18 -7t-7 -17t7.5 -17.5t17.5 -7.5q31 7 49.5 1t26.5 -20t9.5 -28.5t0.5 -26.5l-2 -11q0 -10 7 -17t17 -7zM782 698q-52 12 -121 -2h-2l-1 -1l-1 -1q-11 -3 -18.5 -12.5t-7.5 -21.5
q0 -15 10.5 -25.5t24.5 -10.5q19 3 32 8q6 0 18.5 1.5t33.5 -4t42 -13.5t43 -27t37 -44q27 -61 11 -118q-7 -17 -7 -34q0 -15 10 -23.5t25 -8.5t23 5.5t11 24.5q19 57 14.5 104t-20 81.5t-43.5 59.5t-56 40t-58 22z" />
    <glyph glyph-name="uniE661" unicode="&#xe661;" 
d="M471 467q62 0 119 13t94 38v-61h46v133q0 38 -39 67t-97 43t-122.5 14t-122.5 -14t-97 -43t-39 -67v-363q0 -39 39 -67.5t97 -42.5t122 -14v46q-91 0 -151.5 25.5t-60.5 52.5v109q36 -24 93.5 -37.5t118.5 -13.5v46q-91 0 -151.5 25t-60.5 52v110q36 -25 93.5 -38
t118.5 -13zM471 668q92 0 152.5 -25.5t60.5 -52.5t-60.5 -52t-152 -25t-152 25t-60.5 52t60.5 52.5t151.5 25.5zM678 442q-81 0 -127.5 -26.5t-46.5 -61.5v-233q0 -36 46.5 -62t127.5 -26t127.5 26t46.5 61v234q0 35 -46.5 61.5t-127.5 26.5zM678 396q39 0 70 -8t44.5 -17.5
t13.5 -16.5t-13.5 -16t-44.5 -17t-70 -8t-70 8t-44.5 17t-13.5 16t13.5 16.5t44.5 17.5t70 8zM678 79q-39 0 -70 8t-44.5 17.5t-13.5 16.5v55q48 -26 128 -26t128 26v-55q0 -7 -13.5 -16.5t-44.5 -17.5t-70 -8zM678 196q-39 0 -70 8t-44.5 17t-13.5 16v56q48 -26 128 -26
t128 26v-56q0 -7 -13.5 -16t-44.5 -17t-70 -8zM678 196z" />
    <glyph glyph-name="uniE662" unicode="&#xe662;" 
d="M968 86q14 -9 13 -28t-17 -32l-98 -98q-14 -14 -30 -14t-30 14l-388 388q-72 -30 -153 -13t-141 77q-64 64 -79.5 152t23.5 164l188 -184l128 128l-184 184q75 36 164 21.5t152 -77.5q60 -60 77 -141t-13 -153z" />
    <glyph glyph-name="uniE663" unicode="&#xe663;" 
d="M700 648q85 0 145 -59.5t60 -144.5q0 -87 -63 -147l-330 -331l-336 337q-57 59 -57 141q0 85 60 144.5t145 59.5q62 0 113.5 -34.5t74.5 -90.5q23 56 74.5 90.5t113.5 34.5zM700 683q-55 0 -104.5 -24.5t-83.5 -68.5q-34 44 -83.5 68.5t-104.5 24.5q-99 0 -169 -70
t-70 -169q0 -95 67 -165l336 -337l24 -25l24 25l330 331q73 70 73 171q0 99 -70 169t-169 70z" />
    <glyph glyph-name="uniE679" unicode="&#xe679;" 
d="M288 15q-6 0 -11 3q-13 6 -13 21v670q0 10 7 17t17 7h448q10 0 17 -7t7 -17v-663q0 -15 -13.5 -21.5t-25.5 2.5l-204 155l-214 -162q-7 -5 -15 -5zM296 701v-646l206 156q15 11 29 0l197 -149v639h-432zM391 610h242v-32h-242v32zM391 493h242v-32h-242v32z" />
    <glyph glyph-name="uniE681" unicode="&#xe681;" 
d="M691 302v457h-358v-457h-256l435 -461l435 461h-256z" />
    <glyph glyph-name="uniE683" unicode="&#xe683;" 
d="M905 604q-22 0 -22 -35v-571q0 -19 -19 -38.5t-38 -19.5h-643q-19 0 -41 20t-22 38v571q0 35 -22.5 35t-22.5 -35v-571q0 -46 31 -75t77 -29h643q46 0 72.5 28.5t26.5 75.5v571q0 17 -4 26t-16 9zM99 641l400 -73h6h6l400 73q7 1 10.5 7t3.5 10v16v110q0 45 -25.5 67.5
t-73.5 22.5h-643q-48 0 -78 -23t-30 -67v-110q0 -29 24 -33zM120 784q0 18 21.5 32.5t41.5 14.5h643q20 0 38 -14.5t18 -32.5v-83l-377 -66l-385 66v83zM628 244q14 0 24.5 9t10.5 22q0 14 -10.5 24.5t-24.5 10.5h-82l103 104q10 10 10 23.5t-10 23.5t-23.5 10t-23.5 -10
l-96 -97l-99 97q-10 10 -24 10t-23.5 -10t-9.5 -24t10 -23l102 -104h-81q-14 0 -27 -10.5t-13 -24.5q0 -13 12.5 -22t27.5 -9h87v-43h-87q-14 0 -27 -11t-13 -24t12.5 -22.5t27.5 -9.5h87v-86q0 -15 10 -29.5t23 -14.5t23 14.5t10 29.5v86h94q14 0 24.5 9t10.5 23
q0 13 -10.5 24t-24.5 11h-94v43h94z" />
    <glyph glyph-name="uniE688" unicode="&#xe688;" 
d="M729 385q0 12 -10 20l-358 357q-7 8 -17.5 8t-18 -7.5t-7.5 -18t7 -18.5l342 -341l-342 -342q-7 -7 -7 -17.5t7.5 -18t18 -7.5t17.5 7l361 361q7 7 7 17z" />
    <glyph glyph-name="uniE696" unicode="&#xe696;" 
d="M942 618.5q17 -16.5 17 -39t-17 -39.5l-391 -391q-16 -16 -39 -16t-39 16l-391 391q-17 17 -17 39.5t16.5 39t39.5 16.5h782q22 0 39 -16.5z" />
    <glyph glyph-name="uniE6BD" unicode="&#xe6bd;" 
d="M832 -212h-576q-53 0 -90.5 37.5t-37.5 90.5v640l384 -128h64l384 128v-640q0 -53 -37.5 -90.5t-90.5 -37.5zM577 110h93q31 0 32 27q1 11 -8.5 23.5t-23.5 12.5h-93v23q70 72 89 88q27 25 11 44q-9 10 -22 10t-24 -10l-87 -79q-62 64 -75 77q-11 10 -25 13.5t-26 -6.5
q-9 -14 -6 -25.5t11 -19.5l87 -91l-1 -25h-96q-10 0 -18.5 -13.5t-8.5 -25.5q0 -10 7.5 -17t19.5 -7l96 1v-69h-100q-11 0 -19 -8.5t-8 -19.5q-1 -11 7 -21.5t20 -10.5h100v-33q2 -30 35 -31q14 0 23.5 9.5t9.5 20.5l-1 34q84 1 99 0q12 0 20 10t7 22q-1 29 -34 29h-91v68z
M576 492h-64l-384 128q0 53 37.5 90.5t90.5 37.5h576q53 0 90.5 -37.5t37.5 -90.5z" />
    <glyph glyph-name="uniE6E9" unicode="&#xe6e9;" 
d="M330 398l368 2l-177 -463zM372 566l280 -3l50 -112l-364 2zM292 457l-222 96l119 92l142 -76zM70 497l210 -97l226 -460zM751 401l196 106l-414 -564zM746 458l-55 118l126 74l110 -96zM368 623l-48 13l-90 52l106 40h345l105 -46l-101 -51l-34 -8h-283z" />
    <glyph glyph-name="uniE6EF" unicode="&#xe6ef;" 
d="M896 655q26 0 40 -7q7 -3 12 -7t8 -9q6 -10 5 -21v-8q0 -2 -1 -6t-2 -6l-12 -33l-19 -55l-21 -59q-12 -36 -16 -47q-6 -17 -13.5 -29.5t-16.5 -19.5q-18 -14 -44 -14h-479l14 -80h459q44 0 44 -37q0 -18 -9 -31q-8 -13 -34 -13h-478q-6 0 -11.5 1t-10 2.5t-8.5 4.5
q-12 8 -20 21q-4 6 -7.5 13t-6.5 15q-5 19 -7 29l-5 26l-11 51l-13 69l-15 77l-39 200h-68q-14 0 -22 6q-9 7 -17 16q-2 6 -4.5 11t-3.5 10t-1.5 10.5t-0.5 8.5q0 18 12 30q8 5 16 8t18 3h92q18 0 29 -5q5 -3 9.5 -6t8.5 -7q6 -9 8 -17l6 -16q1 -4 3 -15v-5l4 -25l5 -34h623
zM743 147q8 0 17 -1q8 -2 16 -5q17 -6 28 -18q12 -12 19 -26q6 -15 6 -31q0 -8 -1.5 -17t-4.5 -15q-7 -14 -19 -27q-11 -11 -28 -17q-15 -7 -33 -7t-33 7q-16 7 -26 17q-12 13 -18 27q-7 15 -7 32q0 7 1.5 15.5t5.5 15.5q6 14 18 26q5 6 12 10.5t14 7.5q5 2 10.5 3.5t11 2
t11.5 0.5zM364 149q17 0 33 -6q15 -6 27 -18q7 -6 11.5 -12.5t7.5 -13.5q7 -16 7 -32t-7 -31q-6 -14 -19 -27q-12 -11 -27.5 -17.5t-32.5 -6.5q-18 0 -33 6q-15 7 -27 18q-12 13 -18 27q-6 15 -6 31.5t6 31.5q3 8 7.5 14t10.5 12q4 4 9 7l8 6q5 3 10 5q4 1 8 2.5t8 2t8.5 1
t8.5 0.5zM364 149z" />
    <glyph glyph-name="uniE6F4" unicode="&#xe6f4;" 
d="M958 187q0 3 0.5 13t0.5 15t-2.5 12.5t-7.5 12.5l-401 380q-15 14 -36.5 14t-37.5 -14l-401 -380q-3 -4 -5 -8.5t-3 -11t-1 -10.5v-12v-11q0 -20 14.5 -34.5t35.5 -14.5h795q20 0 34.5 14.5t14.5 34.5z" />
    <glyph glyph-name="uniE704" unicode="&#xe704;" 
d="M761 637h-93l-105 -193q-42 -79 -52 -105h-2q-27 63 -156 298h-99l184 -316h-151v-69h177v-97h-177v-70h177v-140h87v140h171v70h-171v97h171v69h-146z" />
    <glyph glyph-name="uniE71F" unicode="&#xe71f;" 
d="M895 535q-6 83 -66 142t-144 64q-49 3 -94 -16.5t-79 -53.5q-34 35 -79.5 54t-93.5 16q-84 -5 -144 -64t-66 -142q-5 -55 16 -103.5t60 -82.5l263 -296q19 -25 44 -25t44 26l263 295q39 34 60 82.5t16 103.5z" />
    <glyph glyph-name="uniE729" unicode="&#xe729;" 
d="M886 630q-9 10 -22 10t-23 -10l-425 -425l-234 233q-9 10 -22 10t-23 -9.5t-10 -22.5t10 -23l256 -256q10 -10 22 -10q14 0 23 10l448 448q10 10 10 23t-10 22z" />
  </font>
</defs>
</svg>
